# xmcd CD database file
#
# Track frame offsets:
#	150
#	15910
#	30674
#	48086
#	64673
#	84258
#	105097
#	120364
#	137159
#	160001
#	185028
#	204640
#	220239
#	234206
#	249973
#	268210
#	287415
#	304309
#
# Disc length: 4276 seconds
#
# Revision: 0
# Processed by: cddbd v1.5.1PL0 Copyright (c) Steve Scherf et al.
# Submitted via: CD2WAV32(EN) R3.19
#
DISCID=e410b212
DTITLE=the DOOBIE BROTHERS - the very best of the DOOBIE BROTHERS
DYEAR=1900
DGENRE=
TTITLE0=LONG TRAIN RUNNIN'
TTITLE1=CHINA GROVE
TTITLE2=LISTEN TO THE MUSIC
TTITLE3=TAKI'N IT TO THE STREETS
TTITLE4=BLACK WATER
TTITLE5=JESUS IS JUST ALRIGHT
TTITLE6=ROCKIN' DOWN THE HIGHWAY
TTITLE7=TAKE ME IN YOUR ARMS
TTITLE8=WITHOUT YOU
TTITLE9=SOUTH CITY MIDNIGHT LADY
TTITLE10=IT KEEPS YOU RUNNIN'
TTITLE11=LITTLE DARLING
TTITLE12=YOU BELONG TO ME
TTITLE13=MINUTE BY MINUTE
TTITLE14=HERE TO LOVE YOU
TTITLE15=REAL LOVE
TTITLE16=WHAT A FOOL BELIEVES
TTITLE17=LONG TRAIN RUNNIN' (remix)
EXTD=
EXTT0=
EXTT1=
EXTT2=
EXTT3=
EXTT4=
EXTT5=
EXTT6=
EXTT7=
EXTT8=
EXTT9=
EXTT10=
EXTT11=
EXTT12=
EXTT13=
EXTT14=
EXTT15=
EXTT16=
EXTT17=
PLAYORDER=
